<?xml version="1.0" encoding="UTF-8"?>
<!DOCTYPE svg PUBLIC "-//W3C//DTD SVG 1.0//EN" "http://www.w3.org/TR/2001/REC-SVG-20010904/DTD/svg10.dtd">
<svg xmlns="http://www.w3.org/2000/svg" width="200%" height="200%">
    <desc></desc>
    <g transform="translate(150, 1100)">
        <!-- x axis-->
        <line x1="80"
            x2="80"
            y1="0"
            y2="-1025"
            stroke="black"
            stroke-width="1"/>
        <!-- y axis-->
        <line x1="80"
            x2="750"
            y1="0"
            y2="0"
            stroke="black"
            stroke-width="1"/>
        <text x="80" y="30" text-anchor="middle">0</text>
        <text x="145" y="30" text-anchor="middle">1</text>
        <text x="210" y="30" text-anchor="middle">2</text>
        <text x="275" y="30" text-anchor="middle">3</text>
        <text x="340" y="30" text-anchor="middle">4</text>
        <text x="405" y="30" text-anchor="middle">5</text>
        <text x="470" y="30" text-anchor="middle">6</text>
        <text x="535" y="30" text-anchor="middle">7</text>
        <text x="600" y="30" text-anchor="middle">8</text>
        <text x="665" y="30" text-anchor="middle">9</text>
        <text x="730" y="30" text-anchor="middle">10</text>
        <text x="-30" y="-25" text-anchor="middle">West Midlands Police</text>
        <rect x="80"
            y="-40"
            height="20"
            width="65"
            stroke="black"
            stroke-width="2.5"
            fill="#66FF99"/>
        <text x="155" y="-25">1</text>
        <text x="-30" y="-65" text-anchor="middle">Sussex Police</text>
        <rect x="80"
            y="-80"
            height="20"
            width="65"
            stroke="black"
            stroke-width="2.5"
            fill="#66FF99"/>
        <text x="155" y="-65">1</text>
        <text x="-30" y="-105" text-anchor="middle">Staffordshire Police</text>
        <rect x="80"
            y="-120"
            height="20"
            width="65"
            stroke="black"
            stroke-width="2.5"
            fill="#66FF99"/>
        <text x="155" y="-105">1</text>
        <text x="-30" y="-145" text-anchor="middle">SAC</text>
        <rect x="80"
            y="-160"
            height="20"
            width="65"
            stroke="black"
            stroke-width="2.5"
            fill="#66FF99"/>
        <text x="155" y="-145">1</text>
        <text x="-30" y="-185" text-anchor="middle">ROC</text>
        <rect x="80"
            y="-200"
            height="20"
            width="65"
            stroke="black"
            stroke-width="2.5"
            fill="#66FF99"/>
        <text x="155" y="-185">1</text>
        <text x="-30" y="-225" text-anchor="middle">RAF</text>
        <rect x="80"
            y="-240"
            height="20"
            width="585"
            stroke="black"
            stroke-width="2.5"
            fill="#66FF99"/>
        <text x="675" y="-225">9</text>
        <text x="-30" y="-265" text-anchor="middle">OSI</text>
        <rect x="80"
            y="-280"
            height="20"
            width="325"
            stroke="black"
            stroke-width="2.5"
            fill="#66FF99"/>
        <text x="415" y="-265">5</text>
        <text x="-30" y="-305" text-anchor="middle">NATO</text>
        <rect x="80"
            y="-320"
            height="20"
            width="65"
            stroke="black"
            stroke-width="2.5"
            fill="#66FF99"/>
        <text x="155" y="-305">1</text>
        <text x="-30" y="-345" text-anchor="middle">MoD</text>
        <rect x="80"
            y="-360"
            height="20"
            width="455"
            stroke="black"
            stroke-width="2.5"
            fill="#66FF99"/>
        <text x="545" y="-345">7</text>
        <text x="-30" y="-385" text-anchor="middle">Met Police</text>
        <rect x="80"
            y="-400"
            height="20"
            width="65"
            stroke="black"
            stroke-width="2.5"
            fill="#66FF99"/>
        <text x="155" y="-385">1</text>
        <text x="-30" y="-425" text-anchor="middle">Media Ops at HQ 5 Div</text>
        <rect x="80"
            y="-440"
            height="20"
            width="65"
            stroke="black"
            stroke-width="2.5"
            fill="#66FF99"/>
        <text x="155" y="-425">1</text>
        <text x="-30" y="-465" text-anchor="middle">McDonalds</text>
        <rect x="80"
            y="-480"
            height="20"
            width="65"
            stroke="black"
            stroke-width="2.5"
            fill="#66FF99"/>
        <text x="155" y="-465">1</text>
        <text x="-30" y="-505" text-anchor="middle">Manchester Airport</text>
        <rect x="80"
            y="-520"
            height="20"
            width="65"
            stroke="black"
            stroke-width="2.5"
            fill="#66FF99"/>
        <text x="155" y="-505">1</text>
        <text x="-30" y="-545" text-anchor="middle">DAS</text>
        <rect x="80"
            y="-560"
            height="20"
            width="195"
            stroke="black"
            stroke-width="2.5"
            fill="#66FF99"/>
        <text x="285" y="-545">3</text>
        <text x="-30" y="-585" text-anchor="middle">Civil Aviation Authority</text>
        <rect x="80"
            y="-600"
            height="20"
            width="195"
            stroke="black"
            stroke-width="2.5"
            fill="#66FF99"/>
        <text x="285" y="-585">3</text>
        <text x="-30" y="-625" text-anchor="middle">British Model Flying Association</text>
        <rect x="80"
            y="-640"
            height="20"
            width="65"
            stroke="black"
            stroke-width="2.5"
            fill="#66FF99"/>
        <text x="155" y="-625">1</text>
        <text x="-30" y="-665" text-anchor="middle">BBC</text>
        <rect x="80"
            y="-680"
            height="20"
            width="65"
            stroke="black"
            stroke-width="2.5"
            fill="#66FF99"/>
        <text x="155" y="-665">1</text>
        <text x="-30" y="-705" text-anchor="middle">Australia</text>
        <rect x="80"
            y="-720"
            height="20"
            width="65"
            stroke="black"
            stroke-width="2.5"
            fill="#66FF99"/>
        <text x="155" y="-705">1</text>
        <text x="-30" y="-745" text-anchor="middle">ATSI</text>
        <rect x="80"
            y="-760"
            height="20"
            width="65"
            stroke="black"
            stroke-width="2.5"
            fill="#66FF99"/>
        <text x="155" y="-745">1</text>
        <text x="-30" y="-785" text-anchor="middle">ATC</text>
        <rect x="80"
            y="-800"
            height="20"
            width="130"
            stroke="black"
            stroke-width="2.5"
            fill="#66FF99"/>
        <text x="220" y="-785">2</text>
        <text x="-30" y="-825" text-anchor="middle">Army of Great Britain</text>
        <rect x="80"
            y="-840"
            height="20"
            width="130"
            stroke="black"
            stroke-width="2.5"
            fill="#66FF99"/>
        <text x="220" y="-825">2</text>
        <text x="-30" y="-865" text-anchor="middle">ARIR</text>
        <rect x="80"
            y="-880"
            height="20"
            width="65"
            stroke="black"
            stroke-width="2.5"
            fill="#66FF99"/>
        <text x="155" y="-865">1</text>
        <text x="-30" y="-905" text-anchor="middle">ARCC</text>
        <rect x="80"
            y="-920"
            height="20"
            width="65"
            stroke="black"
            stroke-width="2.5"
            fill="#66FF99"/>
        <text x="155" y="-905">1</text>
        <text x="-30" y="-945" text-anchor="middle">Airprox</text>
        <rect x="80"
            y="-960"
            height="20"
            width="195"
            stroke="black"
            stroke-width="2.5"
            fill="#66FF99"/>
        <text x="285" y="-945">3</text>
        <text x="-30" y="-985" text-anchor="middle">Air CmdSecCS UFO Desk 1</text>
        <rect x="80"
            y="-1000"
            height="20"
            width="65"
            stroke="black"
            stroke-width="2.5"
            fill="#66FF99"/>
        <text x="155" y="-985">1</text>
    </g>
</svg>